<?xml version="1.0" encoding="UTF-8"?>
<svg id="Layer_1" data-name="Layer 1" xmlns="http://www.w3.org/2000/svg" viewBox="0 0 479.91 402.59">
  <defs>
    <style>
      .cls-1 {
        fill-rule: evenodd;
        stroke-width: 0px;
      }
    </style>
  </defs>
  <path class="cls-1" d="m479.91,301.94c0-55.35-45.29-100.65-100.65-100.65h-21.33c55.36,0,100.65-45.29,100.65-100.65S413.29,0,357.93,0h-18v297.35c0,21.39-2.31,40.49-26.43,48.59-16.97,5.4-29.52-.56-41.76-11.78l-127.25-116.63v185.06h234.77c55.36,0,100.65-45.29,100.65-100.65h0ZM262.61,0H0v402.59h67.18V128.75c0-38,40.32-50.01,69.42-23.34l104.61,95.88,21.4,19.62V0h0Z"/>
</svg>